# xmcd
#
# Track frame offsets:
#	150
#	10349
#	29119
#	51526
#	69002
#	97920
#	111449
#	123128
#	137337
#	152242
#	175152
#	192618
#	211511
#	232081
#	248421
#	263888
#
# Disc length: 3729 seconds
#
# Revision: 2
# Processed by: cddbd v1.5.1PL2 Copyright (c) Steve Scherf et al.
# Submitted via: audiograbber 1.83.01
#
DISCID=d90e8f10
DTITLE=Various Artist - Powerfrauen
DYEAR=1900
DGENRE=Oldies
TTITLE0=Wanda Jackson - Lets have a party
TTITLE1=Amii Stewart - Knock on wood
TTITLE2=Gloria Gaynor - I am what I am
TTITLE3=Shirley Bassey - This is my life
TTITLE4=Liza Minelli - City Lights
TTITLE5=Marilyn Monroe - I wanna be loved by you
TTITLE6=Tina Turner - Stand by your man
TTITLE7=Petula Clark - Downtown
TTITLE8=Lisa Stansfield - Listen to your Heart
TTITLE9=Melanie - Ruby Tuesday
TTITLE10=Evelyn Thomas - High Energy
TTITLE11=Anita Ward - Ring my Bell
TTITLE12=La Toya Jackson - You and me
TTITLE13=Gloria Gaynor - Reach out I ll be there
TTITLE14=Shirley Bassey - New York New York
TTITLE15=Marilyn Monroe - Diamonds are a girl s best friend
EXTD=
EXTT0=
EXTT1=
EXTT2=
EXTT3=
EXTT4=
EXTT5=
EXTT6=
EXTT7=
EXTT8=
EXTT9=
EXTT10=
EXTT11=
EXTT12=
EXTT13=
EXTT14=
EXTT15=
PLAYORDER=
